<?xml version="1.0" encoding="iso-8859-1"?>
<!-- Uploaded to: SVG Repo, www.svgrepo.com, Generator: SVG Repo Mixer Tools -->
<svg version="1.1" id="Layer_1" xmlns="http://www.w3.org/2000/svg" xmlns:xlink="http://www.w3.org/1999/xlink" 
	 viewBox="0 0 392.663 392.663" xml:space="preserve">
<path style="fill:#FFFFFF;" d="M359.855,240.356H32.743c-6.012,0-10.925,4.848-10.925,10.925v8.469h40.727
	c6.012,0,10.925,4.848,10.925,10.925c0,6.012-4.848,10.925-10.925,10.925H21.818v19.394h14.933c6.012,0,10.925,4.848,10.925,10.925
	c0,6.012-4.848,10.925-10.925,10.925H21.818v18.036c0,6.012,4.848,10.925,10.925,10.925h327.111c6.012,0,10.925-4.848,10.925-10.925
	v-89.6C370.78,245.269,365.867,240.356,359.855,240.356z"/>
<g>
	<path style="fill:#FFC10D;" d="M105.341,72.016c13.834,0,25.083-11.313,25.083-25.083s-11.248-25.147-25.083-25.147
		S80.259,33.099,80.259,46.869C80.259,60.768,91.507,72.016,105.341,72.016z"/>
	<rect x="246.077" y="99.362" style="fill:#FFC10D;" width="110.028" height="77.834"/>
</g>
<g>
	<polygon style="fill:#56ACE0;" points="282.085,218.376 320.097,218.376 311.046,198.982 291.135,198.982 	"/>
	<path style="fill:#56ACE0;" d="M171.345,165.236c0-11.055-8.986-20.04-20.04-20.04h-15.063l-20.945,48.291
		c-3.814,8.727-16.226,8.727-20.04,0l-20.881-48.226H59.313c-11.055,0-20.04,8.986-20.04,20.04v53.333h132.073V165.236
		L171.345,165.236z"/>
</g>
<g>
	<path style="fill:#194F82;" d="M105.341,93.867c25.859,0,46.933-21.01,46.933-46.933S131.2,0,105.341,0S58.408,21.01,58.408,46.933
		S79.483,93.867,105.341,93.867z M105.341,21.851c13.834,0,25.083,11.313,25.083,25.083s-11.313,25.083-25.083,25.083
		S80.259,60.703,80.259,46.933S91.507,21.851,105.341,21.851z"/>
	<path style="fill:#194F82;" d="M359.855,218.505h-15.58l-9.115-19.523h31.935c6.012,0,10.925-4.848,10.925-10.925V88.372
		c0-6.012-4.848-10.925-10.925-10.925H235.216c-6.012,0-10.925,4.848-10.925,10.925v99.685c0,6.012,4.848,10.925,10.925,10.925
		h31.935l-9.115,19.523h-64.84v-53.333c0-23.079-18.683-41.826-41.826-41.826h-22.238c-4.331,0-8.275,2.521-9.956,6.594
		l-13.77,31.741l-13.77-31.741c-1.681-4.008-5.624-6.594-9.956-6.594H59.313c-23.079,0-41.826,18.683-41.826,41.826v57.083
		C7.143,227.75,0.032,238.61,0.032,251.216v89.471c0,18.101,14.675,32.776,32.711,32.776h1.228v8.275
		c0,6.012,4.848,10.925,10.925,10.925s10.925-4.848,10.925-10.925v-8.275H336.84v8.275c0,6.012,4.848,10.925,10.925,10.925
		c6.012,0,10.925-4.848,10.925-10.925v-8.275h1.228c18.036,0,32.711-14.675,32.711-32.711v-89.471
		C392.566,233.18,377.891,218.505,359.855,218.505z M246.077,177.196V99.362h110.028v77.834H246.077z M320.097,218.376h-38.012
		l9.051-19.394h19.911L320.097,218.376z M39.273,165.236c0-11.055,8.986-20.04,20.04-20.04h15.063l20.945,48.291
		c3.814,8.727,16.226,8.727,20.04,0l20.945-48.291h15.063c11.055,0,20.04,8.986,20.04,20.04v53.333H39.273V165.236z M370.78,340.687
		c0,6.012-4.848,10.925-10.925,10.925H32.743c-6.012,0-10.925-4.848-10.925-10.925V322.65h14.933
		c6.012,0,10.925-4.848,10.925-10.925c0-6.012-4.848-10.925-10.925-10.925H21.818v-19.394h40.727
		c6.012,0,10.925-4.848,10.925-10.925c0-6.012-4.848-10.925-10.925-10.925H21.818v-8.469c0-6.012,4.848-10.925,10.925-10.925
		h327.111c6.012,0,10.925,4.848,10.925,10.925v89.471l0,0V340.687z"/>
</g>
<path style="fill:#56ACE0;" d="M54.594,329.762h283.539c6.012,0,10.925-4.848,10.925-10.925v-45.834
	c0-6.012-4.848-10.925-10.925-10.925h-268.8c2.457,2.004,4.073,5.042,4.073,8.469c0,6.012-4.848,10.925-10.925,10.925H43.604v21.851
	c2.392,2.004,4.008,5.042,4.008,8.404c0,3.297-1.552,6.271-3.879,8.275C44.38,325.56,48.97,329.762,54.594,329.762z"/>
</svg>